<svg xmlns="http://www.w3.org/2000/svg" fill="none" viewBox="0 0 16 16" class="learning-path-course__icon">
  <path fill="#2563EB" d="M12 7H4v8l4.065-1.664L12 15V7z"/>
  <path fill="#3B82F6" d="M8 1l2.61 1.48L13.196 4l.024 3-.024 3-2.586 1.52L8 13l-2.61-1.48L2.804 10 2.78 7l.024-3L5.39 2.48 8 1z"/>
  <path fill="#60A5FA" d="M8 2l2.175 1.233L12.33 4.5l.02 2.5-.02 2.5-2.155 1.267L8 12l-2.175-1.233L3.67 9.5 3.65 7l.02-2.5 2.155-1.267L8 2z"/>
  <path fill="#BFDBFE" d="M8 4l.97 1.665 1.883.408L9.57 7.51l.194 1.917L8 8.65l-1.763.777.194-1.917-1.284-1.437 1.883-.408L8 4z"/>
</svg>